# Blender 4.2.2 LTS
# www.blender.org
mtllib counter.mtl
o counter
v 14.733368 2.405149 7.206361
v 5.495598 2.405149 7.206359
v 14.733368 2.545271 7.238841
v 5.495598 2.405149 7.238839
v 14.733368 2.405149 7.238841
v 5.495598 2.545271 7.238839
v 14.733368 2.510241 7.206361
v 5.495598 2.510241 7.206359
v 5.495598 2.510241 7.238839
v 14.733368 2.510241 7.238841
v 14.733368 2.545271 7.222601
v 5.495598 2.405149 7.222599
v 14.733368 2.405149 7.222601
v 5.495598 2.545271 7.222599
v 5.495598 2.510241 7.222599
v 14.733368 2.510241 7.222601
v 14.733368 2.527756 7.206361
v 5.495598 2.527756 7.206359
v 5.495598 2.527756 7.238839
v 14.733368 2.527756 7.238841
v 5.495598 2.527756 7.222599
v 14.733368 2.527756 7.222601
v 14.733368 2.538703 7.212451
v 5.495598 2.538703 7.212450
v 14.733367 2.405149 9.814915
v 5.495598 2.405149 9.814913
v 14.730141 2.545272 9.782435
v 5.495598 2.405149 9.782434
v 14.733367 2.405149 9.782435
v 5.495598 2.545272 9.782434
v 14.733367 2.510241 9.814915
v 5.495598 2.510241 9.814913
v 5.495598 2.510241 9.782434
v 14.733367 2.510241 9.782435
v 14.730141 2.545272 9.798676
v 5.495598 2.405149 9.798674
v 14.733367 2.405149 9.798676
v 5.495598 2.545272 9.798674
v 5.495598 2.510241 9.798674
v 14.733367 2.510241 9.798676
v 14.733367 2.527756 9.814915
v 5.495598 2.527756 9.814913
v 5.495598 2.527756 9.782434
v 14.733367 2.527756 9.782435
v 5.495598 2.527756 9.798674
v 14.733367 2.527756 9.798676
v 14.731166 2.538703 9.808825
v 5.495598 2.538703 9.808824
v 5.713936 0.040579 7.336276
v 5.713936 0.390885 7.336276
v 5.713936 0.040579 9.684998
v 5.713936 0.390885 9.684998
v 14.528442 0.040579 7.336276
v 14.528442 0.390885 7.336276
v 14.528442 0.040579 9.684998
v 14.528442 0.390885 9.684998
v 5.521214 0.390885 7.222599
v 5.521214 2.405149 7.222599
v 14.707751 0.390885 7.222599
v 14.707751 2.405149 7.222599
v 7.805039 0.390885 7.222599
v 10.114482 0.390885 7.222599
v 12.423924 0.390885 7.222599
v 12.423924 2.405149 7.222599
v 10.114482 2.405149 7.222599
v 7.805040 2.405149 7.222599
v 5.521214 0.390885 9.798674
v 5.521214 2.405149 9.798674
v 14.707751 0.390885 9.798674
v 14.707751 2.405149 9.798674
v 12.423924 2.405149 9.798674
v 10.114482 2.405149 9.798674
v 7.805039 2.405149 9.798674
v 7.805039 0.390885 9.798674
v 10.114482 0.390885 9.798674
v 12.423924 0.390885 9.798674
v 12.443136 0.390885 7.206360
v 12.443136 0.390885 7.222600
v 12.443136 2.265026 7.206360
v 14.733367 0.390885 7.206360
v 14.733367 0.390885 7.222600
v 14.733367 2.265026 7.206360
v 14.733367 2.265026 7.222600
v 12.443136 2.265026 7.222600
v 10.133694 0.390885 9.798674
v 10.133694 0.390885 9.814913
v 10.133694 2.265026 9.798674
v 12.404713 0.390885 9.798674
v 12.404713 0.390885 9.814913
v 12.404713 2.265026 9.798674
v 12.404713 2.265026 9.814913
v 10.133694 2.265026 9.814913
v 7.824252 0.390885 9.798674
v 7.824252 0.390885 9.814913
v 7.824252 2.265026 9.798674
v 10.095270 0.390885 9.798674
v 10.095270 0.390885 9.814913
v 10.095270 2.265026 9.798674
v 10.095270 2.265026 9.814913
v 7.824252 2.265026 9.814913
v 7.824252 0.390885 7.206360
v 7.824252 0.390885 7.222600
v 7.824252 2.265026 7.206360
v 10.095270 0.390885 7.206360
v 10.095270 0.390885 7.222600
v 10.095270 2.265026 7.206360
v 10.095270 2.265026 7.222600
v 7.824252 2.265026 7.222600
v 7.785829 0.390885 7.206360
v 7.785829 0.390885 7.222600
v 7.785829 2.265026 7.206360
v 5.495598 0.390885 7.206360
v 5.495598 0.390885 7.222600
v 5.495598 2.265026 7.206360
v 5.495598 2.265026 7.222600
v 7.785829 2.265026 7.222600
v 10.133694 0.390885 7.206360
v 10.133694 0.390885 7.222600
v 10.133694 2.265026 7.206360
v 12.404713 0.390885 7.206360
v 12.404713 0.390885 7.222600
v 12.404713 2.265026 7.206360
v 12.404713 2.265026 7.222600
v 10.133694 2.265026 7.222600
v 5.521214 0.390885 8.498457
v 5.495598 0.390885 8.498457
v 5.521214 2.265026 8.498457
v 5.521214 0.390885 7.222600
v 5.495598 0.390885 7.222600
v 5.521214 2.265026 7.222600
v 5.495598 2.265026 7.222600
v 5.495598 2.265026 8.498457
v 14.733366 0.390885 8.498457
v 14.707751 0.390885 8.498457
v 14.733366 2.265026 8.498457
v 14.733366 0.390885 7.222600
v 14.707751 0.390885 7.222600
v 14.733366 2.265026 7.222600
v 14.707751 2.265026 7.222600
v 14.707751 2.265026 8.498457
v 14.733366 0.390885 9.798674
v 14.707751 0.390885 9.798674
v 14.733366 2.265026 9.798674
v 14.733366 0.390885 8.522816
v 14.707751 0.390885 8.522816
v 14.733366 2.265026 8.522816
v 14.707751 2.265026 8.522816
v 14.707751 2.265026 9.798674
v 5.521214 0.390885 9.798674
v 5.495598 0.390885 9.798674
v 5.521214 2.265026 9.798674
v 5.521214 0.390885 8.522816
v 5.495598 0.390885 8.522816
v 5.521214 2.265026 8.522816
v 5.495598 2.265026 8.522816
v 5.495598 2.265026 9.798674
v 12.443136 0.390885 9.798674
v 12.443136 0.390885 9.814913
v 12.443136 2.265026 9.798674
v 14.733367 0.390885 9.798674
v 14.733367 0.390885 9.814913
v 14.733367 2.265026 9.798674
v 14.733367 2.265026 9.814913
v 12.443136 2.265026 9.814913
v 7.785829 0.390885 9.798674
v 7.785829 0.390885 9.814913
v 7.785829 2.265026 9.798674
v 5.495598 0.390885 9.798674
v 5.495598 0.390885 9.814913
v 5.495598 2.265026 9.798674
v 5.495598 2.265026 9.814913
v 7.785829 2.265026 9.814913
vn 1.0000 -0.0000 -0.0000
vn -1.0000 -0.0000 -0.0000
vn -0.0000 1.0000 -0.0000
vn -0.0000 0.8395 -0.5433
vn -0.0000 -1.0000 -0.0000
vn -0.0000 -0.0000 -1.0000
vn -0.0000 0.4862 -0.8739
vn -0.9819 -0.1892 -0.0089
vn -0.0000 -0.8395 -0.5433
vn -0.9835 -0.1812 -0.0000
vn 0.9958 0.0917 0.0006
vn -0.0000 -0.4862 -0.8739
vn -0.0000 -0.0000 1.0000
vt 0.958937 0.175960
vt 0.960053 0.175960
vt 0.959634 0.176658
vt 0.958937 0.177076
vt 0.951123 0.354152
vt 0.951123 0.179309
vt 0.957820 0.179309
vt 0.957820 0.354152
vt 0.177734 0.402566
vt 0.177734 0.000000
vt 0.178850 0.000000
vt 0.178850 0.402566
vt 0.177027 0.402566
vt 0.177027 0.000000
vt 0.958936 -0.000000
vt 0.958937 0.174844
vt 0.957820 0.174844
vt 0.957820 0.000000
vt 0.001116 0.402566
vt 0.001116 0.000000
vt 0.002232 0.000000
vt 0.002232 0.402566
vt 0.958936 0.178192
vt 0.960053 0.178192
vt 0.960053 0.179309
vt 0.958936 0.179309
vt 0.353646 0.402566
vt 0.353646 0.000141
vt 0.951123 0.178192
vt 0.957820 0.178192
vt 0.345144 0.805132
vt 0.345144 0.402566
vt 0.346260 0.402566
vt 0.346260 0.805132
vt 0.352958 0.402566
vt 0.352958 0.805132
vt 0.958936 0.354152
vt 0.951123 0.175960
vt 0.957820 0.175960
vt 0.957821 0.177076
vt 0.951123 0.177076
vt 0.951123 0.174844
vt 0.951123 0.177076
vt 0.957820 0.177076
vt 0.958936 0.177076
vt 0.959634 0.177495
vt 0.960053 0.174844
vt 0.344446 0.402566
vt 0.344446 0.805132
vt 0.000000 0.000000
vt -0.000000 0.402566
vt 0.960053 0.354152
vt 0.177027 0.402566
vt 0.177027 0.000000
vt 0.951123 0.000000
vt 0.708816 0.359445
vt 0.708816 0.358327
vt 0.709514 0.358746
vt 0.709933 0.359445
vt 0.994432 0.519675
vt 0.994432 0.117250
vt 0.995548 0.117250
vt 0.995548 0.519675
vt 0.993725 0.519675
vt 0.993725 0.117205
vt 0.992609 0.117205
vt 0.992609 0.519771
vt 0.991493 0.519771
vt 0.991493 0.117205
vt 0.708816 0.368375
vt 0.708816 0.367259
vt 0.709933 0.367259
vt 0.709933 0.368375
vt 0.708816 0.376189
vt 0.708816 0.369491
vt 0.709933 0.369491
vt 0.709933 0.376189
vt 0.992186 0.979975
vt 0.992186 0.577409
vt 0.993302 0.577409
vt 0.993302 0.979975
vt 1.000000 0.577409
vt 1.000000 0.979975
vt 0.708816 0.367259
vt 0.708816 0.360561
vt 0.709933 0.360561
vt 0.709933 0.367259
vt 0.707700 0.367259
vt 0.707700 0.360561
vt 0.707700 0.376189
vt 0.707700 0.369491
vt 0.707700 0.368375
vt 0.708118 0.367677
vt 0.707700 0.359445
vt 0.707700 0.358327
vt 0.960053 -0.000000
vt 0.991488 0.577409
vt 0.991488 0.979879
vt 0.993725 0.519771
vt 0.993725 0.117205
vt 0.299796 0.760892
vt 0.322121 0.760892
vt 0.322121 0.922340
vt 0.299796 0.922341
vt 0.928797 0.384121
vt 0.906471 0.384121
vt 0.906471 0.000000
vt 0.928797 0.000000
vt 0.322121 0.760892
vt 0.344446 0.760892
vt 0.344446 0.922341
vt 0.322121 0.922341
vt 0.951123 0.384121
vt 0.928797 0.384121
vt 0.928797 0.000000
vt 0.951123 0.000000
vt 0.353646 0.784454
vt 0.353646 0.400333
vt 0.515049 0.400333
vt 0.515049 0.784454
vt 0.515049 0.784454
vt 0.515049 0.400333
vt 0.676453 0.400333
vt 0.676453 0.784454
vt 0.128373 0.502091
vt 0.000000 0.502091
vt 0.000000 0.402566
vt 0.128373 0.402566
vt 0.676453 0.400333
vt 0.804825 0.400333
vt 0.804825 0.577409
vt 0.676453 0.577409
vt 0.256746 0.502091
vt 0.128373 0.502091
vt 0.128373 0.402566
vt 0.256746 0.402566
vt 0.353646 0.099525
vt 0.353646 0.000000
vt 0.530673 0.000000
vt 0.530673 0.099525
vt 0.530673 0.099525
vt 0.530673 -0.000000
vt 0.707700 0.000000
vt 0.707700 0.099525
vt 0.530673 0.400333
vt 0.530673 0.300808
vt 0.707700 0.300808
vt 0.707700 0.400333
vt 0.530673 0.200167
vt 0.707700 0.200167
vt 0.353646 0.400333
vt 0.353646 0.300808
vt 0.530673 0.300808
vt 0.530673 0.400333
vt 0.353646 0.200167
vt 0.530673 0.200167
vt 0.256746 0.802899
vt 0.128373 0.802899
vt 0.128373 0.703374
vt 0.256746 0.703374
vt 0.128373 0.602732
vt 0.256746 0.602732
vt 0.128373 0.802899
vt -0.000000 0.802899
vt 0.000000 0.703374
vt 0.128373 0.703374
vt 0.000000 0.602732
vt 0.128373 0.602732
vt 0.676453 0.577410
vt 0.804820 0.577409
vt 0.804820 0.754485
vt 0.676453 0.754486
vt 0.668686 0.903892
vt 0.668686 0.784454
vt 0.669803 0.784454
vt 0.669803 0.903892
vt 0.350726 0.904936
vt 0.350726 0.805132
vt 0.351842 0.805132
vt 0.351842 0.904936
vt 0.707700 0.119442
vt 0.707700 0.000000
vt 0.807504 0.000000
vt 0.807504 0.119442
vt 0.656407 0.903896
vt 0.656407 0.784454
vt 0.657524 0.784454
vt 0.657524 0.903896
vt 0.345563 0.904936
vt 0.345563 0.805131
vt 0.346679 0.805131
vt 0.346679 0.904936
vt 0.707700 0.238885
vt 0.707700 0.119442
vt 0.807504 0.119442
vt 0.807504 0.238885
vt 0.962285 0.197934
vt 0.962285 0.098967
vt 0.963401 0.098967
vt 0.963401 0.197934
vt 0.351842 0.924569
vt 0.351842 0.805132
vt 0.352958 0.924569
vt 0.804820 0.696852
vt 0.903787 0.577409
vt 0.903787 0.696852
vt 0.666454 0.903896
vt 0.666454 0.784454
vt 0.667570 0.784454
vt 0.667570 0.903896
vt 0.961169 0.397542
vt 0.961169 0.298575
vt 0.962285 0.298575
vt 0.962285 0.397542
vt 0.804825 0.519776
vt 0.804825 0.400333
vt 0.903792 0.400333
vt 0.903792 0.519776
vt 0.962285 0.296901
vt 0.963401 0.296901
vt 0.344446 0.924569
vt 0.345563 0.805132
vt 0.345563 0.924569
vt 0.807504 0.358327
vt 0.807504 0.238885
vt 0.906471 0.238885
vt 0.906471 0.358327
vt 0.667570 0.903896
vt 0.667570 0.784454
vt 0.668686 0.784454
vt 0.668686 0.903896
vt 0.962285 0.098967
vt 0.962285 0.000000
vt 0.963401 0.000000
vt 0.963401 0.098967
vt 0.000000 0.922341
vt 0.000000 0.802899
vt 0.098967 0.802899
vt 0.098967 0.922341
vt 0.961169 0.197934
vt 0.961169 0.098967
vt 0.962285 0.098967
vt 0.962285 0.197934
vt 0.670919 0.784454
vt 0.670919 0.903892
vt 0.098967 0.802899
vt 0.197934 0.802899
vt 0.197934 0.922341
vt 0.658640 0.903896
vt 0.658640 0.784454
vt 0.659756 0.784454
vt 0.659756 0.903896
vt 0.961169 0.199608
vt 0.962285 0.199608
vt 0.197934 0.802899
vt 0.296901 0.802899
vt 0.296901 0.922341
vt 0.349610 0.904936
vt 0.349610 0.805132
vt 0.350726 0.805132
vt 0.350726 0.904936
vt 0.674220 0.903892
vt 0.674220 0.784454
vt 0.675336 0.784454
vt 0.675336 0.903892
vt 0.353646 0.903896
vt 0.353646 0.784454
vt 0.453450 0.784454
vt 0.453450 0.903896
vt 0.346679 0.904936
vt 0.346679 0.805132
vt 0.347795 0.805132
vt 0.347795 0.904936
vt 0.553254 0.903896
vt 0.553254 0.784454
vt 0.653058 0.784454
vt 0.653058 0.903896
vt 0.961169 0.000000
vt 0.962285 0.000000
vt 0.672035 0.784454
vt 0.672035 0.903892
vt 0.807504 0.119442
vt 0.807504 0.000000
vt 0.906471 0.000000
vt 0.906471 0.119442
vt 0.660872 0.784454
vt 0.660872 0.903896
vt 0.960053 0.398380
vt 0.960053 0.299413
vt 0.961169 0.299413
vt 0.961169 0.398380
vt 0.807504 0.238885
vt 0.807504 0.119442
vt 0.906471 0.119442
vt 0.855203 0.873928
vt 0.855203 0.961605
vt 0.854087 0.961605
vt 0.854087 0.873928
vt 0.298680 0.880335
vt 0.298680 0.760892
vt 0.299796 0.880335
vt 0.676453 0.993366
vt 0.676453 0.873928
vt 0.764153 0.873928
vt 0.764153 0.993366
vt 0.297563 0.880335
vt 0.297563 0.760892
vt 0.856320 0.873928
vt 0.856320 0.961605
vt 0.855203 0.961605
vt 0.855203 0.873928
vt 0.256746 0.760892
vt 0.256746 0.641450
vt 0.344446 0.641450
vt 0.344446 0.760892
vt 0.859668 0.873928
vt 0.859668 0.961605
vt 0.858552 0.961605
vt 0.858552 0.873928
vt 0.661989 0.903896
vt 0.661989 0.784454
vt 0.663105 0.784454
vt 0.663105 0.903896
vt 0.764153 0.993366
vt 0.764153 0.873928
vt 0.851854 0.873928
vt 0.851854 0.993366
vt 0.663105 0.903896
vt 0.663105 0.784454
vt 0.664221 0.784454
vt 0.664221 0.903896
vt 0.860785 0.873928
vt 0.860785 0.961605
vt 0.876061 0.873928
vt 0.876061 0.754486
vt 0.963762 0.754486
vt 0.963762 0.873928
vt 0.858552 0.873928
vt 0.858552 0.961605
vt 0.857436 0.961605
vt 0.857436 0.873928
vt 0.664221 0.903896
vt 0.664221 0.784454
vt 0.665338 0.784454
vt 0.665338 0.903896
vt 0.903787 0.696847
vt 0.991488 0.577409
vt 0.991488 0.696847
vt 0.665338 0.903896
vt 0.665338 0.784454
vt 0.666454 0.903896
vt 0.852971 0.873928
vt 0.852971 0.961605
vt 0.851854 0.961605
vt 0.851854 0.873928
vt 0.256746 0.522008
vt 0.344446 0.402566
vt 0.344446 0.522008
vt 0.854087 0.873928
vt 0.854087 0.961605
vt 0.852971 0.961605
vt 0.852971 0.873928
vt 0.653058 0.903896
vt 0.653058 0.784454
vt 0.654175 0.784454
vt 0.654175 0.903896
vt 0.903792 0.519771
vt 0.903792 0.400333
vt 0.991493 0.400333
vt 0.991493 0.519771
vt 0.654175 0.903896
vt 0.654175 0.784454
vt 0.655291 0.784454
vt 0.655291 0.903896
vt 0.857436 0.873928
vt 0.857436 0.961605
vt 0.856320 0.961605
vt 0.856320 0.873928
vt 0.256746 0.641450
vt 0.344446 0.522008
vt 0.344446 0.641450
vt 0.676453 0.784454
vt 0.676453 0.903892
vt 0.348494 0.904936
vt 0.348494 0.805132
vt 0.349610 0.805132
vt 0.349610 0.904936
vt 0.676453 0.873928
vt 0.776257 0.754486
vt 0.776257 0.873928
vt 0.655291 0.903896
vt 0.655291 0.784454
vt 0.960053 0.099804
vt 0.960053 0.000000
vt 0.961169 0.000000
vt 0.961169 0.099804
vt 0.707700 0.358327
vt 0.707700 0.238885
vt 0.807504 0.238885
vt 0.807504 0.358327
vt 0.960053 0.199608
vt 0.960053 0.099804
vt 0.961169 0.099804
vt 0.673104 0.903892
vt 0.673104 0.784454
vt 0.553254 0.903896
vt 0.661989 0.784454
vt 0.661989 0.903896
vt 0.960053 0.299413
vt 0.960053 0.199608
vt 0.961169 0.199608
vt 0.961169 0.299413
vt 0.876061 0.754486
vt 0.876061 0.873928
s 0
usemtl bake.001
f 22/1/1 17/4/1 23/3/1 11/2/1
f 28/5/2 33/8/2 9/7/2 4/6/2
f 14/9/3 6/12/3 3/11/3 11/10/3
f 11/10/4 23/14/4 24/13/4 14/9/4
f 44/15/1 34/18/1 10/17/1 20/16/1
f 13/19/5 5/22/5 4/21/5 12/20/5
f 21/23/2 19/26/2 6/25/2 14/24/2
f 30/27/3 27/28/3 3/11/3 6/12/3
f 12/29/2 4/6/2 9/7/2 15/30/2
f 17/31/6 7/34/6 8/33/6 18/32/6
f 7/34/6 1/36/6 2/35/6 8/33/6
f 33/8/2 43/37/2 19/26/2 9/7/2
f 13/38/1 1/41/1 7/40/1 16/39/1
f 5/42/1 13/38/1 16/39/1 10/17/1
f 2/43/2 12/29/2 15/30/2 8/44/2
f 18/45/2 21/23/2 14/24/2 24/46/2
f 20/16/1 22/1/1 11/2/1 3/47/1
f 10/17/1 16/39/1 22/1/1 20/16/1
f 8/44/2 15/30/2 21/23/2 18/45/2
f 15/30/2 9/7/2 19/26/2 21/23/2
f 24/48/7 23/49/7 17/31/7 18/32/7
f 2/50/5 1/51/5 13/19/5 12/20/5
f 43/37/2 30/52/2 6/25/2 19/26/2
f 16/39/1 7/40/1 17/4/1 22/1/1
f 29/53/5 28/54/5 4/21/5 5/22/5
f 34/18/1 29/55/1 5/42/1 10/17/1
f 46/56/8 41/59/8 47/58/8 35/57/8
f 38/60/5 30/63/5 27/62/5 35/61/5
f 35/61/9 47/65/9 48/64/9 38/60/9
f 37/66/3 29/69/3 28/68/3 36/67/3
f 45/70/1 43/73/1 30/72/1 38/71/1
f 36/74/1 28/77/1 33/76/1 39/75/1
f 41/78/6 31/81/6 32/80/6 42/79/6
f 31/81/6 25/83/6 26/82/6 32/80/6
f 37/84/2 25/87/2 31/86/2 40/85/2
f 29/88/2 37/84/2 40/85/2 34/89/2
f 26/90/1 36/74/1 39/75/1 32/91/1
f 42/92/1 45/70/1 38/71/1 48/93/1
f 44/94/10 46/56/10 35/57/10 27/95/10
f 34/89/2 40/85/2 46/56/2 44/94/2
f 32/91/1 39/75/1 45/70/1 42/92/1
f 27/96/11 44/15/11 20/16/11 3/47/11
f 39/75/1 33/76/1 43/73/1 45/70/1
f 48/97/12 47/98/12 41/78/12 42/79/12
f 26/99/3 25/100/3 37/66/3 36/67/3
f 40/85/2 31/86/2 41/59/2 46/56/2
f 49/101/2 51/104/2 52/103/2 50/102/2
f 51/105/13 55/108/13 56/107/13 52/106/13
f 55/109/1 53/112/1 54/111/1 56/110/1
f 53/113/6 49/116/6 50/115/6 54/114/6
f 51/117/5 49/120/5 53/119/5 55/118/5
f 56/121/3 54/124/3 50/123/3 52/122/3
f 76/125/13 69/128/13 70/127/13 71/126/13
f 69/129/1 59/132/1 60/131/1 70/130/1
f 61/133/6 57/136/6 58/135/6 66/134/6
f 76/137/5 63/140/5 59/139/5 69/138/5
f 73/141/3 66/144/3 58/143/3 68/142/3
f 70/145/3 60/148/3 64/147/3 71/146/3
f 71/146/3 64/147/3 65/150/3 72/149/3
f 72/149/3 65/150/3 66/144/3 73/141/3
f 67/151/5 57/154/5 61/153/5 74/152/5
f 74/152/5 61/153/5 62/156/5 75/155/5
f 75/155/5 62/156/5 63/140/5 76/137/5
f 59/157/6 63/160/6 64/159/6 60/158/6
f 63/160/6 62/162/6 65/161/6 64/159/6
f 62/162/6 61/133/6 66/134/6 65/161/6
f 67/163/13 74/166/13 73/165/13 68/164/13
f 74/166/13 75/168/13 72/167/13 73/165/13
f 75/168/13 76/125/13 71/126/13 72/167/13
f 57/169/2 67/172/2 68/171/2 58/170/2
f 77/173/2 78/176/2 84/175/2 79/174/2
f 78/177/5 77/180/5 80/179/5 81/178/5
f 80/181/6 77/184/6 79/183/6 82/182/6
f 81/185/1 80/188/1 82/187/1 83/186/1
f 83/189/3 82/192/3 79/191/3 84/190/3
f 78/193/13 81/196/13 83/195/13 84/194/13
f 86/197/5 85/200/5 88/199/5 89/198/5
f 85/201/2 86/203/2 92/36/2 87/202/2
f 88/204/6 85/206/6 87/205/6 90/170/6
f 89/207/1 88/210/1 90/209/1 91/208/1
f 91/211/3 90/214/3 87/213/3 92/212/3
f 86/215/13 89/218/13 91/217/13 92/216/13
f 94/219/5 93/220/5 96/200/5 97/197/5
f 93/221/2 94/223/2 100/222/2 95/49/2
f 96/224/6 93/227/6 95/226/6 98/225/6
f 97/228/1 96/231/1 98/230/1 99/229/1
f 99/232/3 98/235/3 95/234/3 100/233/3
f 94/236/13 97/239/13 99/238/13 100/237/13
f 102/240/5 101/243/5 104/242/5 105/241/5
f 101/176/2 102/245/2 108/244/2 103/175/2
f 104/239/6 101/248/6 103/247/6 106/246/6
f 105/249/1 104/252/1 106/251/1 107/250/1
f 107/212/3 106/213/3 103/254/3 108/253/3
f 102/248/13 105/257/13 107/256/13 108/255/13
f 110/258/3 109/261/3 112/260/3 113/259/3
f 109/262/2 110/265/2 116/264/2 111/263/2
f 112/266/13 109/269/13 111/268/13 114/267/13
f 113/188/1 112/249/1 114/250/1 115/187/1
f 115/270/5 114/273/5 111/272/5 116/271/5
f 110/274/6 113/277/6 115/276/6 116/275/6
f 118/241/5 117/242/5 120/279/5 121/278/5
f 117/245/2 118/281/2 124/280/2 119/244/2
f 120/282/6 117/285/6 119/284/6 122/283/6
f 121/252/1 120/287/1 122/286/1 123/251/1
f 123/288/3 122/291/3 119/290/3 124/289/3
f 118/292/13 121/226/13 123/294/13 124/293/13
f 126/295/3 125/298/3 128/297/3 129/296/3
f 125/299/6 126/301/6 132/101/6 127/300/6
f 128/302/2 125/305/2 127/304/2 130/303/2
f 129/306/13 128/299/13 130/300/13 131/307/13
f 131/308/5 130/311/5 127/310/5 132/309/5
f 126/312/1 129/315/1 131/314/1 132/313/1
f 134/316/3 133/319/3 136/318/3 137/317/3
f 133/320/6 134/323/6 140/322/6 135/321/6
f 136/324/2 133/327/2 135/326/2 138/325/2
f 137/328/13 136/331/13 138/330/13 139/329/13
f 139/332/5 138/316/5 135/317/5 140/333/5
f 134/334/1 137/337/1 139/336/1 140/335/1
f 142/338/3 141/341/3 144/340/3 145/339/3
f 141/342/6 142/345/6 148/344/6 143/343/6
f 144/346/2 141/348/2 143/347/2 146/205/2
f 145/349/13 144/351/13 146/208/13 147/350/13
f 147/352/5 146/355/5 143/354/5 148/353/5
f 142/356/1 145/358/1 147/357/1 148/136/1
f 150/359/3 149/362/3 152/361/3 153/360/3
f 149/363/6 150/366/6 156/365/6 151/364/6
f 152/367/2 149/370/2 151/369/2 154/368/2
f 153/371/13 152/374/13 154/373/13 155/372/13
f 155/375/5 154/378/5 151/377/5 156/376/5
f 150/379/1 153/381/1 155/380/1 156/356/1
f 157/265/2 158/383/2 164/382/2 159/264/2
f 158/384/5 157/387/5 160/386/5 161/385/5
f 160/388/6 157/390/6 159/389/6 162/172/6
f 161/391/1 160/185/1 162/186/1 163/392/1
f 163/393/3 162/396/3 159/395/3 164/394/3
f 158/397/13 161/400/13 163/399/13 164/398/13
f 166/401/3 165/253/3 168/403/3 169/402/3
f 165/404/2 166/262/2 172/263/2 167/405/2
f 168/269/13 165/406/13 167/275/13 170/268/13
f 169/287/1 168/408/1 170/407/1 171/286/1
f 171/409/5 170/412/5 167/411/5 172/410/5
f 166/390/6 169/414/6 171/413/6 172/389/6
