# Blender 4.2.2 LTS
# www.blender.org
mtllib tagliere.mtl
o bake
v -1.650086 2.007212 0.900212
v -1.641428 1.996016 0.900212
v -1.641428 2.007212 0.908870
v -0.845575 2.007212 0.908870
v -0.845575 1.996016 0.900212
v -0.836917 2.007212 0.900212
v -1.650086 2.007212 0.104359
v -1.641428 2.007212 0.095701
v -1.641428 1.996016 0.104359
v -0.836917 2.007212 0.104359
v -0.845575 1.996016 0.104359
v -0.845575 2.007212 0.095701
v -1.650086 2.015705 0.104359
v -1.641428 2.026902 0.104359
v -1.641428 2.015705 0.095701
v -1.650086 2.015705 0.900212
v -1.641428 2.015705 0.908870
v -1.641428 2.026902 0.900212
v -0.845575 2.015705 0.908870
v -0.836917 2.015705 0.900212
v -0.845575 2.026902 0.900212
v -0.836917 2.015705 0.104359
v -0.845575 2.015705 0.095701
v -0.845575 2.026902 0.104359
v -1.305660 1.996016 0.798642
v -1.304713 1.996016 0.808252
v -1.304713 1.996016 0.789031
v -1.297358 1.996016 0.826010
v -1.297358 1.996016 0.771273
v -1.301910 1.996016 0.817493
v -1.301910 1.996016 0.779790
v -1.283766 1.996016 0.839602
v -1.283766 1.996016 0.757682
v -1.266008 1.996016 0.846957
v -1.266008 1.996016 0.750326
v -1.275249 1.996016 0.844154
v -1.275249 1.996016 0.753129
v -1.256398 1.996016 0.847904
v -1.291231 1.996016 0.833475
v -1.291231 1.996016 0.763808
v -1.246787 1.996016 0.846957
v -1.246787 1.996016 0.750326
v -1.229029 1.996016 0.839602
v -1.229029 1.996016 0.757682
v -1.237546 1.996016 0.844154
v -1.237546 1.996016 0.753129
v -1.215438 1.996016 0.826010
v -1.215438 1.996016 0.771273
v -1.207135 1.996016 0.798642
v -1.208082 1.996016 0.808252
v -1.208082 1.996016 0.789031
v -1.210885 1.996016 0.817493
v -1.210885 1.996016 0.779790
v -1.221564 1.996016 0.833475
v -1.221564 1.996016 0.763808
v -1.256398 1.996016 0.749379
v -1.305660 2.026902 0.798642
v -1.304713 2.026902 0.808252
v -1.304713 2.026902 0.789031
v -1.297358 2.026902 0.826010
v -1.297358 2.026902 0.771273
v -1.301910 2.026902 0.817493
v -1.301910 2.026902 0.779790
v -1.283766 2.026902 0.839602
v -1.283766 2.026902 0.757682
v -1.266008 2.026902 0.846957
v -1.266008 2.026902 0.750326
v -1.275249 2.026902 0.844154
v -1.275249 2.026902 0.753129
v -1.256398 2.026902 0.847904
v -1.291231 2.026902 0.833475
v -1.291231 2.026902 0.763808
v -1.246787 2.026902 0.846957
v -1.246787 2.026902 0.750326
v -1.229029 2.026902 0.839602
v -1.229029 2.026902 0.757682
v -1.237546 2.026902 0.844154
v -1.237546 2.026902 0.753129
v -1.215438 2.026902 0.826010
v -1.215438 2.026902 0.771273
v -1.207135 2.026902 0.798642
v -1.208082 2.026902 0.808252
v -1.208082 2.026902 0.789031
v -1.210885 2.026902 0.817493
v -1.210885 2.026902 0.779790
v -1.221564 2.026902 0.833475
v -1.221564 2.026902 0.763808
v -1.256398 2.026902 0.749379
vn -0.0000 -0.0000 1.0000
vn 1.0000 -0.0000 -0.0000
vn -0.0000 -0.0000 -1.0000
vn -0.0000 -1.0000 -0.0000
vn -0.0000 1.0000 -0.0000
vn -0.6204 -0.4798 0.6204
vn 0.6204 -0.4798 0.6204
vn -0.6204 -0.4798 -0.6204
vn 0.6204 -0.4798 -0.6204
vn -0.6204 0.4798 -0.6204
vn -0.6204 0.4798 0.6204
vn 0.6204 0.4798 0.6204
vn 0.6204 0.4798 -0.6204
vn -0.7911 -0.6117 -0.0000
vn -0.0000 -0.6117 0.7911
vn 0.7911 -0.6117 -0.0000
vn -0.0000 -0.6117 -0.7911
vn -0.7911 0.6117 -0.0000
vn -0.0000 0.6117 0.7911
vn 0.7911 0.6117 -0.0000
vn -0.0000 0.6117 -0.7911
vn 0.7071 -0.0000 0.7071
vn -0.7071 -0.0000 0.7071
vn 0.7071 -0.0000 -0.7071
vn -0.7071 -0.0000 -0.7071
vn -1.0000 -0.0000 -0.0000
vn -0.0980 -0.0000 0.9952
vn -0.2903 -0.0000 0.9569
vn -0.4714 -0.0000 0.8819
vn -0.6344 -0.0000 0.7730
vn -0.7730 -0.0000 0.6344
vn -0.8819 -0.0000 0.4714
vn -0.9569 -0.0000 0.2903
vn -0.9952 -0.0000 0.0980
vn -0.9952 -0.0000 -0.0980
vn -0.9569 -0.0000 -0.2903
vn -0.8819 -0.0000 -0.4714
vn -0.7730 -0.0000 -0.6344
vn -0.6344 -0.0000 -0.7730
vn -0.4714 -0.0000 -0.8819
vn -0.2903 -0.0000 -0.9569
vn -0.0980 -0.0000 -0.9952
vn 0.0980 -0.0000 -0.9952
vn 0.2903 -0.0000 -0.9569
vn 0.4714 -0.0000 -0.8819
vn 0.6344 -0.0000 -0.7730
vn 0.7730 -0.0000 -0.6344
vn 0.8819 -0.0000 -0.4714
vn 0.9569 -0.0000 -0.2903
vn 0.9952 -0.0000 -0.0980
vn 0.9952 -0.0000 0.0980
vn 0.9569 -0.0000 0.2903
vn 0.8819 -0.0000 0.4714
vn 0.7730 -0.0000 0.6344
vn 0.6344 -0.0000 0.7730
vn 0.4714 -0.0000 0.8819
vn 0.2903 -0.0000 0.9569
vn 0.0980 -0.0000 0.9952
vt 0.510646 0.699558
vt 0.505380 0.353574
vt 0.509418 0.353512
vt 0.514684 0.699497
vt 0.505266 0.346046
vt 0.500000 0.000061
vt 0.504038 0.000000
vt 0.509304 0.345984
vt 0.519950 0.699620
vt 0.514684 0.353635
vt 0.518722 0.353574
vt 0.523987 0.699558
vt 0.061868 0.212362
vt 0.005324 0.005324
vt 0.494676 0.005324
vt 0.494676 0.494676
vt 0.005324 0.494676
vt 0.061868 0.271778
vt 0.067777 0.272361
vt 0.073686 0.271778
vt 0.079369 0.270055
vt 0.084605 0.267256
vt 0.089195 0.263489
vt 0.092962 0.258899
vt 0.095762 0.253662
vt 0.097485 0.247980
vt 0.098067 0.242070
vt 0.097485 0.236161
vt 0.095762 0.230479
vt 0.092962 0.225242
vt 0.089195 0.220652
vt 0.084605 0.216885
vt 0.079369 0.214086
vt 0.073686 0.212362
vt 0.067777 0.211780
vt 0.056185 0.214086
vt 0.050949 0.216885
vt 0.046359 0.220652
vt 0.042592 0.225242
vt 0.039793 0.230479
vt 0.038069 0.236161
vt 0.037487 0.242070
vt 0.038069 0.247980
vt 0.039793 0.253662
vt 0.042592 0.258899
vt 0.046359 0.263489
vt 0.050949 0.267256
vt 0.056185 0.270055
vt 0.061868 0.787638
vt 0.005324 0.994676
vt 0.005324 0.505324
vt 0.061868 0.728222
vt 0.056185 0.729945
vt 0.050949 0.732744
vt 0.046359 0.736511
vt 0.042592 0.741101
vt 0.039793 0.746338
vt 0.038069 0.752020
vt 0.037487 0.757930
vt 0.038069 0.763839
vt 0.039793 0.769521
vt 0.042592 0.774758
vt 0.046359 0.779348
vt 0.050949 0.783115
vt 0.056185 0.785914
vt 0.494676 0.505324
vt 0.494676 0.994676
vt 0.067777 0.788220
vt 0.073686 0.787638
vt 0.079369 0.785914
vt 0.084605 0.783115
vt 0.089195 0.779348
vt 0.092962 0.774758
vt 0.095762 0.769521
vt 0.097485 0.763839
vt 0.098067 0.757930
vt 0.097485 0.752020
vt 0.095762 0.746338
vt 0.092962 0.741101
vt 0.089195 0.736511
vt 0.084605 0.732744
vt 0.079369 0.729945
vt 0.073686 0.728222
vt 0.067777 0.727640
vt 0.520831 0.888313
vt 0.514684 0.890486
vt 0.514684 0.883966
vt 0.500000 0.349891
vt 0.519950 0.346046
vt 0.520064 0.353574
vt 0.514684 0.349891
vt 0.520064 0.707148
vt 0.514684 0.703465
vt 0.523987 0.345984
vt 0.529368 0.349667
vt 0.524102 0.353513
vt 0.523163 0.885015
vt 0.517015 0.880669
vt 0.523163 0.878495
vt 0.514684 0.349667
vt 0.524102 0.707087
vt 0.529368 0.703241
vt 0.005324 0.000000
vt 0.494676 0.000000
vt -0.000000 0.494676
vt 0.000000 0.005324
vt 0.494676 0.500000
vt 0.005324 0.500000
vt 0.500000 0.005324
vt 0.500000 0.494676
vt 0.494676 1.000000
vt 0.005324 1.000000
vt -0.000000 0.994676
vt 0.000000 0.505324
vt 0.005324 0.500000
vt 0.494676 0.500000
vt 0.500000 0.505324
vt 0.500000 0.994676
vt 0.514684 0.000061
vt 0.518722 0.000000
vt 0.514684 0.707148
vt 0.529370 0.707148
vt 0.529370 0.711738
vt 0.514684 0.711738
vt 0.529370 0.716975
vt 0.514684 0.716975
vt 0.529370 0.722657
vt 0.514684 0.722657
vt 0.529370 0.728566
vt 0.514684 0.728566
vt 0.529370 0.734476
vt 0.514684 0.734476
vt 0.529370 0.740158
vt 0.514684 0.740158
vt 0.529370 0.745395
vt 0.514684 0.745395
vt 0.529370 0.749985
vt 0.514684 0.749985
vt 0.529370 0.749985
vt 0.529370 0.754575
vt 0.514684 0.754575
vt 0.514684 0.749985
vt 0.529370 0.759812
vt 0.514684 0.759812
vt 0.529370 0.765494
vt 0.514684 0.765494
vt 0.529370 0.771403
vt 0.514684 0.771403
vt 0.529370 0.777312
vt 0.514684 0.777312
vt 0.529370 0.782995
vt 0.514684 0.782995
vt 0.529370 0.788231
vt 0.514684 0.788231
vt 0.529370 0.792822
vt 0.514684 0.792822
vt 0.529370 0.792822
vt 0.529370 0.797412
vt 0.514684 0.797412
vt 0.514684 0.792821
vt 0.529370 0.802648
vt 0.514684 0.802648
vt 0.529370 0.808331
vt 0.514684 0.808331
vt 0.529370 0.814240
vt 0.514684 0.814240
vt 0.529370 0.820149
vt 0.514684 0.820149
vt 0.529370 0.825831
vt 0.514684 0.825831
vt 0.529370 0.831068
vt 0.514684 0.831068
vt 0.529370 0.835658
vt 0.514684 0.835658
vt 0.514684 0.835658
vt 0.529370 0.835658
vt 0.529370 0.840248
vt 0.514684 0.840248
vt 0.529370 0.845485
vt 0.514684 0.845485
vt 0.529370 0.851167
vt 0.514684 0.851167
vt 0.529370 0.857077
vt 0.514684 0.857077
vt 0.529370 0.862986
vt 0.514684 0.862986
vt 0.529370 0.868668
vt 0.514684 0.868668
vt 0.529370 0.873905
vt 0.514684 0.873905
vt 0.529370 0.878495
vt 0.514684 0.878495
s 0
usemtl bake
f 3/1/1 4/2/1 19/3/1 17/4/1
f 6/5/2 10/6/2 22/7/2 20/8/2
f 12/9/3 8/10/3 15/11/3 23/12/3
f 26/13/4 2/14/4 9/15/4 11/16/4 5/17/4 50/18/4 49/19/4 51/20/4 53/21/4 48/22/4 55/23/4 44/24/4 46/25/4 42/26/4 56/27/4 35/28/4 37/29/4 33/30/4 40/31/4 29/32/4 31/33/4 27/34/4 25/35/4
f 50/18/4 5/17/4 2/14/4 26/13/4 30/36/4 28/37/4 39/38/4 32/39/4 36/40/4 34/41/4 38/42/4 41/43/4 45/44/4 43/45/4 54/46/4 47/47/4 52/48/4
f 58/49/5 18/50/5 21/51/5 82/52/5 84/53/5 79/54/5 86/55/5 75/56/5 77/57/5 73/58/5 70/59/5 66/60/5 68/61/5 64/62/5 71/63/5 60/64/5 62/65/5
f 21/51/5 24/66/5 14/67/5 18/50/5 58/49/5 57/68/5 59/69/5 63/70/5 61/71/5 72/72/5 65/73/5 69/74/5 67/75/5 88/76/5 74/77/5 78/78/5 76/79/5 87/80/5 80/81/5 85/82/5 83/83/5 81/84/5 82/52/5
f 1/85/6 2/86/6 3/87/6
f 4/2/7 5/88/7 6/5/7
f 7/89/8 8/90/8 9/91/8
f 10/92/9 11/93/9 12/9/9
f 13/94/10 14/95/10 15/96/10
f 16/97/11 17/98/11 18/99/11
f 19/3/12 20/8/12 21/100/12
f 22/101/13 23/12/13 24/102/13
f 9/15/14 2/14/14 1/103/14 7/104/14
f 2/14/15 5/17/15 4/105/15 3/106/15
f 5/17/16 11/16/16 10/107/16 6/108/16
f 11/16/17 9/15/17 8/109/17 12/110/17
f 13/111/18 16/112/18 18/50/18 14/67/18
f 17/113/19 19/114/19 21/51/19 18/50/19
f 20/115/20 22/116/20 24/66/20 21/51/20
f 23/117/21 15/118/21 14/67/21 24/66/21
f 6/5/22 20/8/22 19/3/22 4/2/22
f 16/97/23 1/85/23 3/87/23 17/98/23
f 12/9/24 23/12/24 22/101/24 10/92/24
f 15/96/25 8/90/25 7/89/25 13/94/25
f 7/89/26 1/119/26 16/120/26 13/94/26
f 88/121/27 56/122/27 42/123/27 74/124/27
f 74/124/28 42/123/28 46/125/28 78/126/28
f 78/126/29 46/125/29 44/127/29 76/128/29
f 76/128/30 44/127/30 55/129/30 87/130/30
f 55/129/31 48/131/31 80/132/31 87/130/31
f 48/131/32 53/133/32 85/134/32 80/132/32
f 53/133/33 51/135/33 83/136/33 85/134/33
f 51/135/34 49/137/34 81/138/34 83/136/34
f 49/139/35 50/140/35 82/141/35 81/142/35
f 50/140/36 52/143/36 84/144/36 82/141/36
f 52/143/37 47/145/37 79/146/37 84/144/37
f 47/145/38 54/147/38 86/148/38 79/146/38
f 54/147/39 43/149/39 75/150/39 86/148/39
f 43/149/40 45/151/40 77/152/40 75/150/40
f 45/151/41 41/153/41 73/154/41 77/152/41
f 41/153/42 38/155/42 70/156/42 73/154/42
f 38/157/43 34/158/43 66/159/43 70/160/43
f 34/158/44 36/161/44 68/162/44 66/159/44
f 36/161/45 32/163/45 64/164/45 68/162/45
f 32/163/46 39/165/46 71/166/46 64/164/46
f 71/166/47 39/165/47 28/167/47 60/168/47
f 60/168/48 28/167/48 30/169/48 62/170/48
f 62/170/49 30/169/49 26/171/49 58/172/49
f 58/172/50 26/171/50 25/173/50 57/174/50
f 57/175/51 25/176/51 27/177/51 59/178/51
f 59/178/52 27/177/52 31/179/52 63/180/52
f 63/180/53 31/179/53 29/181/53 61/182/53
f 61/182/54 29/181/54 40/183/54 72/184/54
f 72/184/55 40/183/55 33/185/55 65/186/55
f 65/186/56 33/185/56 37/187/56 69/188/56
f 69/188/57 37/187/57 35/189/57 67/190/57
f 67/190/58 35/189/58 56/191/58 88/192/58
